<svg width="44" height="44" viewBox="0 0 44 44" fill="none" xmlns="http://www.w3.org/2000/svg">
<path d="M0 10.002V40.008H2V42.008H4V44.008H40.01V42.008H42.01V40.008H44.01V10.002H0ZM16.004 16.002H14.004V18.002H12.004V22.004H10.004V24.004H8V28.006H10V30.006H12V34.006H14V36.006H16V38.008H12V36.008H10V34.008H8V30.008H6V28.006H4V24.006H6V22.006H8V18.004H10V16.004H12V14.004H16L16.004 16.002ZM26.006 22.004H24.006V30.006H22.006V38.008H20.006V40.008H18.004V30.008H20.004V24.006H22.004V14H24.004V12H26.006V22.004ZM40.01 28.006H38.01V30.006H36.01V34.006H34.008V36.006H32.008V38.008H28.008V36.008H30.008V34.008H32.008V30.008H34.008V28.006H36.008V24.006H34.008V22.006H32.008V18.004H30.008V16.004H28.008V14.004H32.008V16.004H34.008V18.004H36.008V22.004H38.008V24.004H40.008L40.01 28.006ZM42.01 4V2H40.01V0H4V2H2V4H0V8H44.01V4H42.01ZM6 6V2H10V6H6ZM12 6V2H16V6H12ZM18.002 6V2H22.002V6H18.002Z" fill="#F8F4E1"/>
</svg>
